<?xml version="1.0" encoding="iso-8859-1"?>
<!-- Generator: Adobe Illustrator 19.0.0, SVG Export Plug-In . SVG Version: 6.00 Build 0)  -->
<svg version="1.1" id="Capa_1" xmlns="http://www.w3.org/2000/svg" xmlns:xlink="http://www.w3.org/1999/xlink" x="0px" y="0px"
	 viewBox="0 0 512 512" style="enable-background:new 0 0 512 512;" xml:space="preserve">
<path style="fill:#E8EDF1;" d="M128.442,88.764v26.138c0,58.707,39.588,108.023,93.557,122.91
	c6.514,1.776,11.081,7.698,11.081,14.465s-4.484,12.604-11.081,14.465c-53.884,14.888-93.557,64.205-93.557,122.826v11.335v22.332
	h255.125v-22.332v-11.333c0-58.707-39.588-108.023-93.557-122.826c-6.514-1.861-11.081-7.698-11.081-14.549
	c0-6.767,4.484-12.604,11.081-14.465c53.884-14.803,93.557-64.12,93.557-122.826v-26.14"/>
<g>
	<path style="fill:#D4D9DC;" d="M240.725,252.282c0,6.765-2.994,12.603-7.382,14.456c-35.921,14.893-62.373,64.206-62.373,122.829
		v33.663h-42.526v-33.663c0-58.623,39.672-107.936,93.555-122.829c6.605-1.854,11.09-7.691,11.09-14.456
		c0-6.775-4.57-12.699-11.09-14.467c-53.968-14.893-93.555-64.206-93.555-122.914V88.76h42.526v26.142
		c0,58.709,26.398,108.022,62.373,122.914C237.678,239.585,240.725,245.507,240.725,252.282z"/>
	<path style="fill:#D4D9DC;" d="M278.926,252.198c0,6.849,4.57,12.687,11.09,14.542c53.968,14.807,93.555,64.12,93.555,122.829
		v33.663h-42.538v-33.663c0-58.709-26.388-108.022-62.363-122.829c-4.335-1.854-7.382-7.691-7.382-14.542
		c0-6.775,2.983-12.613,7.382-14.467c35.922-14.808,62.363-64.12,62.363-122.829V88.76h42.538v26.142
		c0,58.709-39.672,108.022-93.555,122.829C283.411,239.585,278.926,245.422,278.926,252.198z"/>
</g>
<g>
	<rect x="113.042" y="36.686" style="fill:#31313D;" width="285.936" height="52.079"/>
	<rect x="113.042" y="423.236" style="fill:#31313D;" width="285.936" height="61.456"/>
</g>
<g>
	<rect x="113.042" y="36.686" style="fill:#1D1D28;" width="63.937" height="52.079"/>
	<rect x="113.042" y="423.236" style="fill:#1D1D28;" width="63.937" height="61.456"/>
</g>
<g>
	<rect x="79.877" style="fill:#515B68;" width="352.246" height="54.617"/>
	<rect x="79.877" y="457.383" style="fill:#515B68;" width="352.246" height="54.617"/>
</g>
<g>
	<rect x="79.877" style="fill:#3E4751;" width="69.925" height="54.617"/>
	<rect x="79.877" y="457.383" style="fill:#3E4751;" width="69.925" height="54.617"/>
</g>
<g>
	<rect x="308.187" style="fill:#7B8391;" width="69.925" height="54.617"/>
	<rect x="308.187" y="457.383" style="fill:#7B8391;" width="69.925" height="54.617"/>
</g>
<path style="fill:#CEA94D;" d="M325.328,423.231c-11.676-11.803-26.419-20.71-43.166-25.322c-11.111-3.036-20.304-10.12-26.153-19.4
	c-5.805,9.215-14.914,16.31-25.908,19.41l-0.203,0.053c-16.747,4.613-31.501,13.476-43.198,25.258"/>
<path style="fill:#E1BF5E;" d="M294.329,423.231c-6.454-11.803-14.605-20.71-23.861-25.322c-6.142-3.036-11.224-10.12-14.457-19.4
	c-3.209,9.215-8.244,16.31-14.321,19.41l-0.112,0.053c-9.257,4.613-17.413,13.476-23.879,25.258"/>
<path style="fill:#CEA94D;" d="M255.999,228.426c-5.849-9.273-15.044-16.362-26.152-19.391
	c-40.921-11.289-69.906-48.176-71.508-90.443h195.33c-1.602,42.264-30.576,79.113-71.561,90.373l-0.196,0.054
	C270.916,212.122,261.806,219.212,255.999,228.426z"/>
<g>
	<path style="fill:#E1BF5E;" d="M256.002,228.426c-3.335-9.273-8.579-16.362-14.912-19.391
		c-23.335-11.289-39.862-48.176-40.775-90.443h111.382c-0.913,42.264-17.435,79.113-40.806,90.373l-0.112,0.054
		C264.508,212.122,259.313,219.212,256.002,228.426z"/>
	<rect x="248.158" y="209.021" style="fill:#E1BF5E;" width="15.673" height="188.897"/>
</g>
<g>
</g>
<g>
</g>
<g>
</g>
<g>
</g>
<g>
</g>
<g>
</g>
<g>
</g>
<g>
</g>
<g>
</g>
<g>
</g>
<g>
</g>
<g>
</g>
<g>
</g>
<g>
</g>
<g>
</g>
</svg>
